<svg width="148" height="26" viewBox="0 0 148 26" fill="none" xmlns="http://www.w3.org/2000/svg">
<path d="M13.86 25.528C11.99 25.528 10.263 25.242 8.679 24.67C7.117 24.076 5.753 23.24 4.587 22.162C3.443 21.084 2.552 19.808 1.914 18.334C1.276 16.86 0.957 15.232 0.957 13.45C0.957 11.668 1.276 10.04 1.914 8.566C2.552 7.092 3.454 5.816 4.62 4.738C5.786 3.66 7.161 2.835 8.745 2.263C10.351 1.669 12.111 1.372 14.025 1.372C16.313 1.372 18.348 1.757 20.13 2.527C21.934 3.297 23.419 4.397 24.585 5.827L19.602 10.216C18.876 9.38 18.084 8.753 17.226 8.335C16.39 7.895 15.455 7.675 14.421 7.675C13.563 7.675 12.782 7.807 12.078 8.071C11.396 8.335 10.813 8.72 10.329 9.226C9.845 9.732 9.471 10.337 9.207 11.041C8.943 11.745 8.811 12.548 8.811 13.45C8.811 14.308 8.943 15.1 9.207 15.826C9.471 16.53 9.845 17.135 10.329 17.641C10.813 18.147 11.385 18.543 12.045 18.829C12.727 19.093 13.486 19.225 14.322 19.225C15.202 19.225 16.06 19.082 16.896 18.796C17.732 18.488 18.623 17.971 19.569 17.245L23.925 22.591C22.517 23.537 20.911 24.263 19.107 24.769C17.303 25.275 15.554 25.528 13.86 25.528ZM17.16 21.601V12.823H23.925V22.591L17.16 21.601ZM27.0123 25V6.949H34.1073V12.394L32.9523 10.843C33.5023 9.435 34.3823 8.379 35.5923 7.675C36.8023 6.971 38.2543 6.619 39.9483 6.619V13.219C39.6183 13.175 39.3213 13.142 39.0573 13.12C38.8153 13.098 38.5623 13.087 38.2983 13.087C37.1763 13.087 36.2523 13.384 35.5263 13.978C34.8223 14.55 34.4703 15.551 34.4703 16.981V25H27.0123ZM42.2931 25V1.9H53.4141C55.5701 1.9 57.4291 2.252 58.9911 2.956C60.5751 3.66 61.7961 4.672 62.6541 5.992C63.5121 7.29 63.9411 8.83 63.9411 10.612C63.9411 12.394 63.5121 13.934 62.6541 15.232C61.7961 16.508 60.5751 17.487 58.9911 18.169C57.4291 18.851 55.5701 19.192 53.4141 19.192H46.6161L50.0811 15.991V25H42.2931ZM56.1201 25L50.4441 16.585H58.6941L64.4361 25H56.1201ZM50.0811 16.849L46.6161 13.318H52.9191C53.9971 13.318 54.7891 13.076 55.2951 12.592C55.8231 12.108 56.0871 11.448 56.0871 10.612C56.0871 9.776 55.8231 9.116 55.2951 8.632C54.7891 8.148 53.9971 7.906 52.9191 7.906H46.6161L50.0811 4.375V16.849ZM71.5757 25V7.939H64.8107V1.9H86.1287V7.939H79.3637V25H71.5757ZM96.0818 25.33C93.8818 25.33 91.9568 24.923 90.3068 24.109C88.6788 23.295 87.4138 22.184 86.5118 20.776C85.6098 19.346 85.1588 17.74 85.1588 15.958C85.1588 14.132 85.5988 12.515 86.4788 11.107C87.3808 9.699 88.6018 8.599 90.1418 7.807C91.7038 7.015 93.4528 6.619 95.3888 6.619C97.1708 6.619 98.8098 6.971 100.306 7.675C101.824 8.379 103.034 9.424 103.936 10.81C104.86 12.196 105.322 13.912 105.322 15.958C105.322 16.222 105.311 16.519 105.289 16.849C105.267 17.157 105.245 17.443 105.223 17.707H91.3298V14.11H101.263L98.4578 15.067C98.4578 14.363 98.3258 13.769 98.0618 13.285C97.8198 12.779 97.4788 12.394 97.0388 12.13C96.5988 11.844 96.0708 11.701 95.4548 11.701C94.8388 11.701 94.2998 11.844 93.8378 12.13C93.3978 12.394 93.0568 12.779 92.8148 13.285C92.5728 13.769 92.4518 14.363 92.4518 15.067V16.189C92.4518 16.959 92.6058 17.619 92.9138 18.169C93.2218 18.719 93.6618 19.137 94.2338 19.423C94.8058 19.687 95.4988 19.819 96.3128 19.819C97.1488 19.819 97.8308 19.709 98.3588 19.489C98.9088 19.269 99.4808 18.939 100.075 18.499L103.969 22.426C103.089 23.372 102 24.098 100.702 24.604C99.4258 25.088 97.8858 25.33 96.0818 25.33ZM117.377 25.33C115.309 25.33 113.472 24.934 111.866 24.142C110.26 23.35 108.995 22.25 108.071 20.842C107.169 19.412 106.718 17.784 106.718 15.958C106.718 14.132 107.169 12.515 108.071 11.107C108.995 9.699 110.26 8.599 111.866 7.807C113.472 7.015 115.309 6.619 117.377 6.619C119.577 6.619 121.458 7.092 123.02 8.038C124.582 8.984 125.66 10.293 126.254 11.965L120.479 14.803C120.105 13.967 119.643 13.362 119.093 12.988C118.565 12.614 117.982 12.427 117.344 12.427C116.794 12.427 116.277 12.559 115.793 12.823C115.331 13.087 114.957 13.483 114.671 14.011C114.407 14.517 114.275 15.166 114.275 15.958C114.275 16.75 114.407 17.41 114.671 17.938C114.957 18.466 115.331 18.862 115.793 19.126C116.277 19.39 116.794 19.522 117.344 19.522C117.982 19.522 118.565 19.335 119.093 18.961C119.643 18.587 120.105 17.982 120.479 17.146L126.254 19.984C125.66 21.656 124.582 22.965 123.02 23.911C121.458 24.857 119.577 25.33 117.377 25.33ZM140.518 6.619C141.904 6.619 143.158 6.905 144.28 7.477C145.402 8.027 146.282 8.896 146.92 10.084C147.58 11.272 147.91 12.812 147.91 14.704V25H140.452V15.991C140.452 14.869 140.254 14.077 139.858 13.615C139.462 13.131 138.923 12.889 138.241 12.889C137.735 12.889 137.262 13.01 136.822 13.252C136.404 13.472 136.063 13.846 135.799 14.374C135.557 14.902 135.436 15.617 135.436 16.519V25H127.978V0.513999H135.436V12.229L133.654 10.711C134.358 9.347 135.304 8.324 136.492 7.642C137.702 6.96 139.044 6.619 140.518 6.619Z" fill="#00DCB7"/>
</svg>
